<?xml version="1.0" encoding="UTF-8" standalone="no"?>
<!-- Created with Inkscape (http://www.inkscape.org/) -->

<svg
   width="70mm"
   height="70mm"
   viewBox="0 0 70 70"
   version="1.1"
   id="svg1074"
   inkscape:version="1.1 (c68e22c387, 2021-05-23)"
   sodipodi:docname="buy2.svg"
   xmlns:inkscape="http://www.inkscape.org/namespaces/inkscape"
   xmlns:sodipodi="http://sodipodi.sourceforge.net/DTD/sodipodi-0.dtd"
   xmlns="http://www.w3.org/2000/svg"
   xmlns:svg="http://www.w3.org/2000/svg">
  <sodipodi:namedview
     id="namedview1076"
     pagecolor="#505050"
     bordercolor="#ffffff"
     borderopacity="1"
     inkscape:pageshadow="0"
     inkscape:pageopacity="0"
     inkscape:pagecheckerboard="1"
     inkscape:document-units="mm"
     showgrid="false"
     inkscape:zoom="0.55232884"
     inkscape:cx="309.59817"
     inkscape:cy="125.83084"
     inkscape:window-width="1440"
     inkscape:window-height="847"
     inkscape:window-x="-8"
     inkscape:window-y="-8"
     inkscape:window-maximized="1"
     inkscape:current-layer="layer1"
     width="1e-05mm" />
  <defs
     id="defs1071" />
  <g
     inkscape:label="Camada 1"
     inkscape:groupmode="layer"
     id="layer1">
    <path
       style="fill:#ffffff;stroke-width:0.264583"
       d="m 26.390829,59.459125 c -3.70293,-1.7144 -4.42866,-6.5256 -1.38714,-9.19608 3.63192,-3.18887 9.19235,-0.70908 9.19235,4.09952 0,4.12849 -4.10569,6.80938 -7.80521,5.09656 z m 4.2598,-3.0438 c 0.73747,-0.73748 0.89958,-1.09984 0.89958,-2.01084 0,-0.91099 -0.16211,-1.27336 -0.89958,-2.01083 -1.21102,-1.21102 -2.65959,-1.25809 -3.92489,-0.12754 -0.76449,0.68307 -0.86407,0.92952 -0.86407,2.13837 0,1.20886 0.0996,1.45531 0.86407,2.13837 1.2653,1.13056 2.71387,1.08349 3.92489,-0.12753 z m 13.202705,3.22618 c -2.21391,-0.77388 -3.57187,-2.78083 -3.57187,-5.27894 0,-2.93604 2.0498,-5.22325 4.89236,-5.45897 5.10323,-0.4232 8.14463,5.33375 4.81891,9.12153 -1.49687,1.70484 -4.00056,2.36401 -6.1394,1.61638 z m 4.02428,-3.23917 c 1.17689,-1.36821 1.11199,-2.85541 -0.18102,-4.14841 -0.83883,-0.83884 -2.08807,-1.00574 -3.32148,-0.44376 -1.25405,0.57138 -1.82613,2.53287 -1.16313,3.988 0.74583,1.63691 3.47348,1.99012 4.66563,0.60417 z M 20.636149,46.181215 c -0.79552,-0.46335 -0.53089,-1.56375 0.85989,-3.57558 0.72761,-1.05252 1.31999,-2.13233 1.31642,-2.39959 -0.0142,-1.06142 -5.77648,-26.844425 -6.08168,-27.212165 -0.26221,-0.31595 -1.09983,-0.39355 -4.24797,-0.39355 -3.7522698,0 -3.9391098,-0.0253 -4.3332198,-0.58804 -0.53005,-0.75675 -0.5197,-0.89164 0.11729,-1.52863 0.48996,-0.4899705 0.88194,-0.5291605 5.2916598,-0.5291605 4.40972,0 4.8017,0.0392 5.29167,0.5291605 0.29104,0.29104 0.52917,0.74348 0.52917,1.00542 0,1.12009 -0.14727,1.11125 18.520835,1.11125 13.55842,0 17.96265,0.0768 18.20333,0.3175 0.2368,0.2368 0.3175,3.12376 0.3175,11.35818 0,11.941595 0.009,11.863405 -1.40796,11.878285 -1.77064,0.0186 -29.047775,2.36167 -29.298675,2.51673 -0.19251,0.11898 -0.24059,0.58392 -0.13393,1.29515 0.13844,0.92324 0.0513,1.27912 -0.51902,2.11954 -0.37697,0.5555 -0.62277,1.17322 -0.54622,1.37272 0.11565,0.30138 2.69398,0.36272 15.246145,0.36272 9.90763,0 15.28308,0.0943 15.61872,0.27389 0.61923,0.33141 0.67076,1.38141 0.096,1.95617 -0.36951,0.36951 -2.30525,0.41488 -17.39635,0.40773 -11.040605,-0.005 -17.142555,-0.10238 -17.443605,-0.27773 z m 18.190105,-11.35701 c 7.27604,-0.58455 13.61767,-1.12678 14.09252,-1.20495 l 0.86335,-0.14212 -0.0696,-9.049335 -0.0696,-9.04935 -16.17664,-0.0682 c -13.164085,-0.0555 -16.201495,-0.003 -16.310035,0.27942 -0.13383,0.34875 3.62228,19.561105 3.91776,20.039205 0.19851,0.3212 -1.49713,0.42042 13.752255,-0.80471 z M 26.581999,21.18428 c -0.68825,-0.48206 -0.75923,-1.23122 -0.17227,-1.81818 0.36453,-0.36453 1.76023,-0.41577 11.324175,-0.41577 8.13153,0 10.98921,0.0808 11.22589,0.3175 0.5031,0.5031 0.38575,1.74402 -0.19427,2.05444 -0.32821,0.17566 -4.29284,0.27389 -11.05363,0.27389 -9.112985,0 -10.621565,-0.0558 -11.129895,-0.41188 z"
       id="path844" />
  </g>
</svg>
