<?xml version="1.0" encoding="UTF-8" standalone="no"?>
<!-- Created with Inkscape (http://www.inkscape.org/) -->

<svg
   width="50mm"
   height="50mm"
   viewBox="0 0 50 50"
   version="1.1"
   id="svg1259"
   inkscape:version="1.1 (c68e22c387, 2021-05-23)"
   sodipodi:docname="exit.svg"
   xmlns:inkscape="http://www.inkscape.org/namespaces/inkscape"
   xmlns:sodipodi="http://sodipodi.sourceforge.net/DTD/sodipodi-0.dtd"
   xmlns="http://www.w3.org/2000/svg"
   xmlns:svg="http://www.w3.org/2000/svg">
  <sodipodi:namedview
     id="namedview1261"
     pagecolor="#505050"
     bordercolor="#ffffff"
     borderopacity="1"
     inkscape:pageshadow="0"
     inkscape:pageopacity="0"
     inkscape:pagecheckerboard="1"
     inkscape:document-units="mm"
     showgrid="false"
     inkscape:zoom="0.55232884"
     inkscape:cx="309.59817"
     inkscape:cy="270.67209"
     inkscape:window-width="1440"
     inkscape:window-height="847"
     inkscape:window-x="-8"
     inkscape:window-y="-8"
     inkscape:window-maximized="1"
     inkscape:current-layer="layer1"
     width="50mm" />
  <defs
     id="defs1256" />
  <g
     inkscape:label="Camada 1"
     inkscape:groupmode="layer"
     id="layer1">
    <path
       style="fill:#000000;stroke-width:0.264583"
       d="m 6.1019567,46.480406 c -0.79736,-0.42166 -1.35309,-0.97595 -1.77119,-1.76659 -0.57526,-1.08782 -0.60927,-1.4378 -0.60927,-6.2699 v -5.11776 h 1.83538 1.83538 l 0.0829,4.74112 c 0.0456,2.60762 0.18201,4.84004 0.30322,4.96094 0.3266,0.32578 34.0891203,0.42213 34.9371703,0.0997 l 0.69349,-0.26367 v -17.41613 c 0,-13.1931 -0.077,-17.4931195 -0.3175,-17.7336295 -0.24051,-0.24052 -4.54053,-0.3175 -17.73363,-0.3175 H 7.9417767 l -0.25804,0.67868 c -0.14192,0.37327 -0.25803,2.5759295 -0.25803,4.8947895 v 4.21611 h -1.86722 -1.86721 l 0.0813,-5.40539 c 0.0903,-6.0041195 0.14006,-6.1843895 2.0705,-7.4981295 l 0.88223,-0.60039 18.9371903,0.0712 c 18.28558,0.0688 18.96046,0.0889 19.61365,0.58538 0.37206,0.28279 0.90784,0.81857 1.19063,1.19063 0.49641,0.65311 0.51662,1.32734 0.58545,19.5311995 0.0792,20.93526 0.17752,19.71457 -1.70393,21.14981 l -0.97175,0.74128 -18.5563,0.0713 -18.5563003,0.0713 z m 16.7991303,-11.04032 -1.30572,-1.32566 2.86326,-2.87217 c 1.99741,-2.00363 2.83424,-3.02292 2.7673,-3.3707 -0.092,-0.4781 -0.57543,-0.50134 -11.80019,-0.56742 l -11.7042403,-0.0689 v -1.84933 -1.84933 H 15.076937 c 6.2455,0 11.54378,-0.0723 11.77396,-0.1606 0.94813,-0.36383 0.39316,-1.3114 -2.42192,-4.13524 l -2.84044,-2.84928 1.32179,-1.32178 1.32178,-1.32179 5.81585,5.82036 5.81585,5.82036 -5.68395,5.68857 c -3.12617,3.12871 -5.749,5.68857 -5.8285,5.68857 -0.0795,0 -0.73212,-0.59655 -1.45027,-1.32566 z"
       id="path1009" />
  </g>
</svg>
