<?xml version="1.0" encoding="UTF-8" standalone="no"?>
<!-- Created with Inkscape (http://www.inkscape.org/) -->

<svg
   width="100mm"
   height="40mm"
   viewBox="0 0 100 40"
   version="1.1"
   id="svg11572"
   inkscape:version="1.1 (c68e22c387, 2021-05-23)"
   sodipodi:docname="logo.svg"
   xmlns:inkscape="http://www.inkscape.org/namespaces/inkscape"
   xmlns:sodipodi="http://sodipodi.sourceforge.net/DTD/sodipodi-0.dtd"
   xmlns="http://www.w3.org/2000/svg"
   xmlns:svg="http://www.w3.org/2000/svg">
  <sodipodi:namedview
     id="namedview11574"
     pagecolor="#505050"
     bordercolor="#ffffff"
     borderopacity="1"
     inkscape:pageshadow="0"
     inkscape:pageopacity="0"
     inkscape:pagecheckerboard="1"
     inkscape:document-units="mm"
     showgrid="false"
     inkscape:zoom="1.1046577"
     inkscape:cx="126.73609"
     inkscape:cy="84.641605"
     inkscape:window-width="1440"
     inkscape:window-height="847"
     inkscape:window-x="-8"
     inkscape:window-y="-8"
     inkscape:window-maximized="1"
     inkscape:current-layer="layer1" />
  <defs
     id="defs11569" />
  <g
     inkscape:label="Camada 1"
     inkscape:groupmode="layer"
     id="layer1">
    <path
       style="fill:#3655c7;fill-opacity:1;stroke-width:0.0327692"
       d="m 31.62646,33.054087 c 0.1735,-0.0525 0.37859,-0.14227 0.47516,-0.20785 0.0934,-0.0635 0.24451,-0.15254 0.33568,-0.19797 0.25745,-0.12827 0.73537,-0.53162 0.73537,-0.62061 0,-0.0171 0.0463,-0.0997 0.10288,-0.1834 0.16005,-0.23694 0.22988,-0.47296 0.24871,-0.84058 0.0191,-0.37174 -0.0295,-0.62202 -0.18442,-0.95009 -0.0539,-0.11419 -0.42851,-0.62938 -0.8935,-1.22885 -1.60403,-2.06792 -3.61144,-4.7454 -4.86096,-6.48353 -0.25243,-0.35114 -0.47518,-0.64383 -0.49499,-0.65045 -0.0503,-0.0167 -1.14349,2.31396 -1.13546,2.42084 0.005,0.0616 0.55164,1.31883 0.6992,1.60691 0.0527,0.10287 0.0959,0.20464 0.0959,0.22607 0,0.0214 0.0432,0.12896 0.0959,0.23892 0.0527,0.11001 0.12491,0.27366 0.16041,0.36379 0.0356,0.0901 0.27371,0.65784 0.52934,1.26161 0.25563,0.60377 0.75951,1.81295 1.11975,2.68707 0.36508,0.88584 0.70781,1.66909 0.77432,1.76954 0.13157,0.19869 0.39696,0.49154 0.44546,0.49154 0.017,0 0.0765,0.0348 0.13232,0.0772 0.40848,0.31096 1.0367,0.39626 1.6191,0.21984 z m -10.4637,-0.4395 c 0.52081,-0.14175 0.88607,-0.41809 1.17606,-0.88977 0.0443,-0.0721 0.30167,-0.66931 0.57188,-1.32716 0.55818,-1.35892 1.05004,-2.53746 1.49901,-3.59179 0.16969,-0.39847 0.3085,-0.74264 0.3085,-0.76481 0,-0.0223 0.0756,-0.19753 0.16793,-0.38966 0.0924,-0.19214 0.32694,-0.71063 0.52129,-1.15219 0.73025,-1.6592 1.42598,-3.18437 1.71616,-3.76215 0.23119,-0.46033 0.18948,-0.44394 1.06969,-0.42037 0.40635,0.0111 0.91008,0.0295 1.11942,0.0416 0.36829,0.021 0.38522,0.0189 0.52349,-0.062 0.11752,-0.0688 0.17342,-0.13947 0.31423,-0.39665 0.0943,-0.1721 0.17134,-0.32898 0.17134,-0.34863 0,-0.0388 0.21649,-0.45031 0.36187,-0.688 0.0791,-0.12932 2.68973,-5.1045 3.27565,-6.24254 0.12059,-0.2343 0.36399,-0.6988 0.5408,-1.03223 0.37658,-0.71014 0.48333,-0.95723 0.58978,-1.36516 0.26347,-1.0096001 0.1447,-2.0401301 -0.34451,-2.9895101 -0.27154,-0.52692 -0.7852,-1.15056 -0.94767,-1.15056 -0.0818,0 -0.18152,0.13245 -0.39453,0.52431 -0.093,0.17123 -0.21425,0.38504 -0.26928,0.47515 -0.11074,0.18132 -1.61661,2.78729 -3.96709,6.8651601 -0.84665,1.46887 -1.70687,2.95201 -1.9116,3.29584 -1.28025,2.15023 -4.05409,6.01975 -7.79697,10.87683 -0.41666,0.5407 -0.81412,1.0568 -0.88325,1.14693 -0.54129,0.70553 -0.52289,1.68214 0.0452,2.40083 0.21582,0.27303 0.4664,0.43887 1.24822,0.82601 0.30426,0.15066 0.34249,0.16005 0.72398,0.17771 0.2468,0.0111 0.36051,3e-5 0.5704,-0.0571 z m 3.75011,-12.63465 c 0.27142,-0.39494 0.4935,-0.72851 0.4935,-0.74128 0,-0.0128 -0.18923,-0.32004 -0.4205,-0.68282 -0.85823,-1.34623 -0.92684,-1.49133 -0.94711,-2.00316 l -0.013,-0.3277 0.34622,-1.29305 c 0.3696,-1.38045 0.39409,-1.53287 0.29801,-1.85502 -0.0265,-0.0888 -0.10398,-0.23592 -0.17204,-0.32673 -0.068,-0.0908 -0.19757,-0.27775 -0.28768,-0.41537 -0.1402,-0.21411 -3.12859,-4.5558501 -3.55882,-5.1705101 -0.082,-0.11715 -0.24909,-0.36046 -0.37133,-0.5407 -0.1222,-0.18022 -0.25584,-0.36454 -0.29689,-0.4096 -0.0411,-0.045 -0.0993,-0.13073 -0.12938,-0.19038 -0.0984,-0.19496 -0.27802,-0.36671 -0.38348,-0.36671 -0.10743,0 -0.45032,0.16235 -0.51988,0.24617 -0.0903,0.10878 -0.0525,0.25344 0.1658,0.6335 0.28844,0.50222 0.20436,0.35633 1.76863,3.06903 0.76907,1.3337101 1.51116,2.6208001 1.64911,2.8602101 0.13793,0.23942 0.25078,0.46658 0.25078,0.50483 0,0.10681 -0.15,0.28047 -0.26395,0.3055 -0.12353,0.0272 -0.27297,-0.0303 -0.33828,-0.12995 -0.0527,-0.0805 -3.36165,-5.8036101 -3.64799,-6.3095901 -0.17772,-0.31404 -0.30061,-0.45877 -0.38954,-0.45877 -0.0832,0 -0.36991,0.16065 -0.40552,0.22718 -0.0187,0.0349 -0.034,0.094 -0.034,0.13135 0,0.0817 -0.001,0.0796 2.14636,3.8031601 0.94075,1.63109 1.71929,3.00111 1.7301,3.04451 0.032,0.12864 -0.0575,0.29389 -0.18902,0.34883 -0.13808,0.0577 -0.24735,0.0367 -0.34401,-0.0662 -0.039,-0.0415 -0.93316,-1.5701 -1.98717,-3.39703 -1.054,-1.8269301 -1.94063,-3.3401301 -1.97027,-3.3626601 -0.0832,-0.0632 -0.19611,-0.0491 -0.3558,0.0446 -0.27112,0.15889 -0.27202,0.23611 -0.007,0.69452 0.11099,0.1928 0.96844,1.67769 1.90531,3.2997601 0.93688,1.62208 1.72415,2.99842 1.74949,3.05854 0.0559,0.13259 0.0111,0.30537 -0.0981,0.38213 -0.10632,0.0744 -0.29955,0.0625 -0.39593,-0.0245 -0.0449,-0.0405 -0.94007,-1.56309 -1.98917,-3.38341 -1.0491,-1.8203301 -1.9297,-3.3355001 -1.95688,-3.3670501 -0.0759,-0.088 -0.22553,-0.0688 -0.45274,0.0583 -0.20355,0.11382 -0.30747,0.21652 -0.30747,0.30385 0,0.069 3.70094,7.8695801 3.8092,8.0286501 0.10324,0.15163 0.30183,0.3131 0.47812,0.38868 0.06,0.0257 0.6573,0.19426 1.32715,0.37447 1.42828,0.38425 1.60122,0.45413 1.91837,0.77514 0.25309,0.25614 0.49027,0.66661 1.20243,2.08085 0.24277,0.48211 0.45496,0.87656 0.47155,0.87656 0.0166,0 0.25223,-0.32312 0.52365,-0.71803 z"
       id="path1004" />
    <text
       xml:space="preserve"
       style="font-style:normal;font-weight:normal;font-size:10.5833px;line-height:1.25;font-family:sans-serif;fill:#3655c7;fill-opacity:1;stroke:none;stroke-width:0.264583"
       x="35.882668"
       y="32.301147"
       id="text5002"><tspan
         sodipodi:role="line"
         id="tspan5000"
         style="font-style:normal;font-variant:normal;font-weight:bold;font-stretch:normal;font-family:Poppins;-inkscape-font-specification:'Poppins Bold';fill:#3655c7;fill-opacity:1;stroke-width:0.264583"
         x="35.882668"
         y="32.301147">rkos</tspan></text>
    <text
       xml:space="preserve"
       style="font-style:normal;font-weight:normal;font-size:10.5833px;line-height:1.25;font-family:sans-serif;fill:#3655c7;fill-opacity:1;stroke:none;stroke-width:0.264583"
       x="60.672592"
       y="32.301147"
       id="text10517"><tspan
         sodipodi:role="line"
         id="tspan10515"
         style="font-style:normal;font-variant:normal;font-weight:normal;font-stretch:normal;font-family:Poppins;-inkscape-font-specification:Poppins;fill:#3655c7;fill-opacity:1;stroke-width:0.264583"
         x="60.672592"
         y="32.301147">Food</tspan></text>
  </g>
</svg>
