<?xml version="1.0" encoding="UTF-8" standalone="no"?>
<!-- Created with Inkscape (http://www.inkscape.org/) -->

<svg
   width="50mm"
   height="50mm"
   viewBox="0 0 50 50"
   version="1.1"
   id="svg1060"
   inkscape:version="1.1 (c68e22c387, 2021-05-23)"
   sodipodi:docname="Trash.svg"
   xmlns:inkscape="http://www.inkscape.org/namespaces/inkscape"
   xmlns:sodipodi="http://sodipodi.sourceforge.net/DTD/sodipodi-0.dtd"
   xmlns="http://www.w3.org/2000/svg"
   xmlns:svg="http://www.w3.org/2000/svg">
  <sodipodi:namedview
     id="namedview1062"
     pagecolor="#505050"
     bordercolor="#ffffff"
     borderopacity="1"
     inkscape:pageshadow="0"
     inkscape:pageopacity="0"
     inkscape:pagecheckerboard="1"
     inkscape:document-units="mm"
     showgrid="false"
     width="50mm"
     inkscape:zoom="0.55232884"
     inkscape:cx="309.59817"
     inkscape:cy="125.83084"
     inkscape:window-width="1440"
     inkscape:window-height="847"
     inkscape:window-x="-8"
     inkscape:window-y="-8"
     inkscape:window-maximized="1"
     inkscape:current-layer="layer1" />
  <defs
     id="defs1057" />
  <g
     inkscape:label="Camada 1"
     inkscape:groupmode="layer"
     id="layer1">
    <path
       style="fill:#ffffff;stroke-width:0.264583"
       d="m 40.023302,45.240165 c 0.4866,-0.32791 1.12928,-1.01252 1.42819,-1.52135 0.52365,-0.89139 0.54653,-1.37393 0.62741,-13.22827 l 0.0839,-12.30312 1.10631,-0.52917 c 1.6545,-0.79138 2.29769,-1.93937 2.29769,-4.10104 0,-1.9473 -0.50828,-3.01712 -1.93687,-4.0767095 -0.68793,-0.51024 -1.15832,-0.56022 -6.01928,-0.6395 l -5.27302,-0.086 v -0.80401 c 0,-1.26888 -1.0087,-2.7892 -2.24891,-3.38958 -1.5932,-0.77126 -6.87356,-0.77126 -8.46676,0 -1.24021,0.60038 -2.24891,2.1207 -2.24891,3.38958 v 0.80401 l -5.27303,0.086 c -5.7631201,0.094 -5.9629401,0.14586 -7.2611901,1.8847295 -0.64823,0.86822 -0.88673,3.43307 -0.44398,4.77459 0.35268,1.06865 1.89669,2.55481 2.65425,2.55481 0.48933,0 0.50814,0.39704 0.58611,12.36927 0.0777,11.92436 0.10009,12.40254 0.6240201,13.29441 0.29891,0.50883 0.94159,1.19344 1.42819,1.52135 l 0.88471,0.59622 h 13.28321 13.2832 z m -26.83961,-3.26188 c -0.0883,-0.23018 -0.1606,-5.64753 -0.1606,-12.03854 v -11.62003 h 12.83229 12.83229 v 11.62003 c 0,6.39101 -0.0723,11.80836 -0.1606,12.03854 -0.14331,0.37347 -1.50729,0.41851 -12.67169,0.41851 -11.16441,0 -12.52838,-0.045 -12.67169,-0.41851 z m 6.49081,-3.79144 0.62463,-0.50579 v -7.3228 -7.32279 l -0.64473,-0.52207 c -0.72718,-0.58884 -1.78297,-0.48153 -2.33183,0.237 -0.47418,0.62074 -0.47418,14.6019 0,15.19977 0.65839,0.83016 1.51283,0.91614 2.35193,0.23668 z m 7.25124,-0.14365 0.64943,-0.64943 v -7.03551 -7.03551 l -0.64943,-0.64943 c -0.35719,-0.35719 -0.83885,-0.64943 -1.07036,-0.64943 -0.23151,0 -0.71317,0.29224 -1.07036,0.64943 l -0.64943,0.64943 v 7.03551 7.03551 l 0.64943,0.64943 c 0.35719,0.35719 0.83885,0.64944 1.07036,0.64944 0.23151,0 0.71317,-0.29225 1.07036,-0.64944 z m 7.26401,0.12027 c 0.50345,-0.50344 0.52917,-0.88194 0.52917,-7.78631 0,-7.75348 -0.008,-7.8037 -1.33744,-8.22559 -0.79375,-0.25193 -1.78538,0.5141 -1.97276,1.52396 -0.088,0.47404 -0.12329,3.81939 -0.0785,7.43411 0.0811,6.54266 0.0842,6.57449 0.70604,7.07761 0.80142,0.64843 1.48888,0.64084 2.1535,-0.0238 z M 9.6896419,14.510495 c -0.0789,-0.20556 -0.10527,-0.77203 -0.0586,-1.25882 l 0.0848,-0.88509 h 16.1395801 16.13958 v 1.19063 1.19062 l -16.08095,0.0682 c -13.65255,0.0579 -16.1026101,0.0118 -16.2243701,-0.30554 z M 22.860412,8.1994055 c 0.0818,-0.57616 0.1782,-0.59532 2.99497,-0.59532 2.81677,0 2.91314,0.0192 2.99496,0.59532 0.0835,0.5881 0.0473,0.59531 -2.99496,0.59531 -3.04223,0 -3.07849,-0.007 -2.99497,-0.59531 z"
       id="path848"
       sodipodi:nodetypes="ssscsssscsssscssssssscccssscccssssscccssssscccssscccssssssssssssscccccssssssss" />
  </g>
</svg>
